<svg width="32" height="32" viewBox="0 0 32 32" fill="none" xmlns="http://www.w3.org/2000/svg">
<rect width="32" height="32" fill="white"/>
<rect width="32" height="32" fill="#22233A"/>
<rect width="32" height="32" fill="url(#paint0_radial_50_3)"/>
<path d="M13.48 24.76C11.944 24.76 10.536 24.3867 9.256 23.64C7.976 22.8933 6.94133 21.8587 6.152 20.536C5.384 19.192 5 17.6453 5 15.896C5 14.2747 5.352 12.792 6.056 11.448C6.76 10.104 7.752 9.02667 9.032 8.216C10.312 7.40533 11.816 7 13.544 7C15.8693 7 17.7147 7.65067 19.08 8.952C20.4453 10.2533 21.4587 12.1733 22.12 14.712L19.912 16.088C19.3573 14.3387 18.7493 13.0267 18.088 12.152C17.4267 11.256 16.712 10.648 15.944 10.328C15.1973 10.008 14.3867 9.848 13.512 9.848C12.4453 9.848 11.5067 10.1253 10.696 10.68C9.88533 11.2133 9.256 11.9387 8.808 12.856C8.36 13.752 8.136 14.7547 8.136 15.864C8.136 16.9947 8.38133 18.0187 8.872 18.936C9.36267 19.8533 10.0133 20.5787 10.824 21.112C11.656 21.624 12.5627 21.88 13.544 21.88C14.504 21.88 15.336 21.6667 16.04 21.24C16.7653 20.8133 17.4053 20.2267 17.96 19.48C18.5147 18.7333 19.016 17.88 19.464 16.92C19.912 15.96 20.3387 14.9573 20.744 13.912L21.928 17.528C21.416 18.5307 20.904 19.4693 20.392 20.344C19.9013 21.2187 19.3467 21.9867 18.728 22.648C18.1307 23.3093 17.4053 23.832 16.552 24.216C15.72 24.5787 14.696 24.76 13.48 24.76ZM24.392 24.792C23.6027 24.792 23.0693 24.4187 22.792 23.672L19.816 15.704L22.088 13.912L25.768 22.712C25.8107 22.776 25.832 22.8613 25.832 22.968C25.8533 23.0747 25.864 23.1493 25.864 23.192C25.864 23.6613 25.736 24.0453 25.48 24.344C25.224 24.6427 24.8613 24.792 24.392 24.792ZM21.608 17.976L19.752 14.968L22.568 8.216C22.7173 7.85333 22.92 7.58667 23.176 7.416C23.432 7.224 23.7627 7.13867 24.168 7.16C24.6373 7.18133 25.0213 7.34133 25.32 7.64C25.6187 7.93867 25.7467 8.32267 25.704 8.792C25.704 8.83467 25.6933 8.90933 25.672 9.016C25.6507 9.12267 25.6187 9.208 25.576 9.272L21.608 17.976Z" fill="white"/>
<defs>
<radialGradient id="paint0_radial_50_3" cx="0" cy="0" r="1" gradientUnits="userSpaceOnUse" gradientTransform="translate(16 32) rotate(-90) scale(16 26.217)">
<stop stop-color="#ACADD5" stop-opacity="0.2"/>
<stop offset="1" stop-color="#ACADD4" stop-opacity="0"/>
</radialGradient>
</defs>
</svg>
