<svg width="189" height="36" viewBox="0 0 189 36" fill="none" xmlns="http://www.w3.org/2000/svg">
<path d="M1.51709 28V10.5455H13.0739V13.5881H5.20743V17.7472H12.3069V20.7898H5.20743V28H1.51709Z" fill="white"/>
<path d="M21.6465 10.5455V28H17.9562V10.5455H21.6465Z" fill="white"/>
<path d="M41.6821 10.5455V28H38.4946L30.9009 17.0142H30.7731V28H27.0827V10.5455H30.3214L37.8554 21.5227H38.0089V10.5455H41.6821Z" fill="white"/>
<path d="M54.8781 28.128C53.3421 28.128 51.9341 27.7547 50.6541 27.008C49.3741 26.2613 48.3394 25.2267 47.5501 23.904C46.7821 22.56 46.3981 21.0133 46.3981 19.264C46.3981 17.6427 46.7501 16.16 47.4541 14.816C48.1581 13.472 49.1501 12.3947 50.4301 11.584C51.7101 10.7733 53.2141 10.368 54.9421 10.368C57.2674 10.368 59.1128 11.0187 60.4781 12.32C61.8434 13.6213 62.8568 15.5413 63.5181 18.08L61.3101 19.456C60.7554 17.7067 60.1474 16.3947 59.4861 15.52C58.8248 14.624 58.1101 14.016 57.3421 13.696C56.5954 13.376 55.7848 13.216 54.9101 13.216C53.8434 13.216 52.9048 13.4933 52.0941 14.048C51.2834 14.5813 50.6541 15.3067 50.2061 16.224C49.7581 17.12 49.5341 18.1227 49.5341 19.232C49.5341 20.3627 49.7794 21.3867 50.2701 22.304C50.7608 23.2213 51.4114 23.9467 52.2221 24.48C53.0541 24.992 53.9608 25.248 54.9421 25.248C55.9021 25.248 56.7341 25.0347 57.4381 24.608C58.1634 24.1813 58.8034 23.5947 59.3581 22.848C59.9128 22.1013 60.4141 21.248 60.8621 20.288C61.3101 19.328 61.7368 18.3253 62.1421 17.28L63.3261 20.896C62.8141 21.8987 62.3021 22.8373 61.7901 23.712C61.2994 24.5867 60.7448 25.3547 60.1261 26.016C59.5288 26.6773 58.8034 27.2 57.9501 27.584C57.1181 27.9467 56.0941 28.128 54.8781 28.128ZM65.7901 28.16C65.0008 28.16 64.4674 27.7867 64.1901 27.04L61.2141 19.072L63.4861 17.28L67.1661 26.08C67.2088 26.144 67.2301 26.2293 67.2301 26.336C67.2514 26.4427 67.2621 26.5173 67.2621 26.56C67.2621 27.0293 67.1341 27.4133 66.8781 27.712C66.6221 28.0107 66.2594 28.16 65.7901 28.16ZM63.0061 21.344L61.1501 18.336L63.9661 11.584C64.1154 11.2213 64.3181 10.9547 64.5741 10.784C64.8301 10.592 65.1608 10.5067 65.5661 10.528C66.0354 10.5493 66.4194 10.7093 66.7181 11.008C67.0168 11.3067 67.1448 11.6907 67.1021 12.16C67.1021 12.2027 67.0914 12.2773 67.0701 12.384C67.0488 12.4907 67.0168 12.576 66.9741 12.64L63.0061 21.344Z" fill="white"/>
<path d="M72.4062 28V10.5455H76.0965V24.9574H83.5794V28H72.4062Z" fill="white"/>
<path d="M111.779 16.6563H108.046C107.977 16.1733 107.838 15.7443 107.628 15.3693C107.418 14.9886 107.148 14.6648 106.818 14.3977C106.489 14.1307 106.108 13.9261 105.676 13.7841C105.25 13.6421 104.787 13.571 104.287 13.571C103.384 13.571 102.597 13.7955 101.926 14.2443C101.256 14.6875 100.736 15.3352 100.367 16.1875C99.9974 17.0341 99.8127 18.0625 99.8127 19.2727C99.8127 20.5171 99.9974 21.5625 100.367 22.4091C100.742 23.2557 101.264 23.8949 101.935 24.3267C102.605 24.7585 103.381 24.9744 104.262 24.9744C104.756 24.9744 105.213 24.9091 105.634 24.7784C106.06 24.6477 106.438 24.4574 106.767 24.2074C107.097 23.9517 107.37 23.6421 107.585 23.2784C107.807 22.9148 107.96 22.5 108.046 22.0341L111.779 22.0511C111.682 22.8523 111.441 23.625 111.054 24.3693C110.673 25.108 110.159 25.7699 109.512 26.3551C108.87 26.9347 108.102 27.3949 107.21 27.7358C106.324 28.071 105.321 28.2386 104.202 28.2386C102.645 28.2386 101.253 27.8864 100.026 27.1818C98.8042 26.4773 97.8383 25.4574 97.128 24.1222C96.4235 22.7869 96.0712 21.1705 96.0712 19.2727C96.0712 17.3693 96.4292 15.75 97.1451 14.4148C97.861 13.0796 98.8326 12.0625 100.06 11.3636C101.287 10.6591 102.668 10.3068 104.202 10.3068C105.213 10.3068 106.151 10.4489 107.014 10.733C107.884 11.0171 108.654 11.4318 109.324 11.9773C109.995 12.5171 110.54 13.179 110.96 13.9631C111.387 14.7472 111.659 15.6449 111.779 16.6563Z" fill="white"/>
<path d="M132.865 19.2727C132.865 21.1761 132.504 22.7955 131.782 24.1307C131.066 25.4659 130.089 26.4858 128.85 27.1903C127.618 27.8892 126.231 28.2386 124.691 28.2386C123.14 28.2386 121.748 27.8864 120.515 27.1818C119.282 26.4773 118.308 25.4574 117.592 24.1222C116.876 22.7869 116.518 21.1705 116.518 19.2727C116.518 17.3693 116.876 15.75 117.592 14.4148C118.308 13.0796 119.282 12.0625 120.515 11.3636C121.748 10.6591 123.14 10.3068 124.691 10.3068C126.231 10.3068 127.618 10.6591 128.85 11.3636C130.089 12.0625 131.066 13.0796 131.782 14.4148C132.504 15.75 132.865 17.3693 132.865 19.2727ZM129.123 19.2727C129.123 18.0398 128.939 17 128.569 16.1534C128.206 15.3068 127.691 14.6648 127.027 14.2273C126.362 13.7898 125.583 13.571 124.691 13.571C123.799 13.571 123.021 13.7898 122.356 14.2273C121.691 14.6648 121.174 15.3068 120.805 16.1534C120.441 17 120.26 18.0398 120.26 19.2727C120.26 20.5057 120.441 21.5455 120.805 22.3921C121.174 23.2386 121.691 23.8807 122.356 24.3182C123.021 24.7557 123.799 24.9744 124.691 24.9744C125.583 24.9744 126.362 24.7557 127.027 24.3182C127.691 23.8807 128.206 23.2386 128.569 22.3921C128.939 21.5455 129.123 20.5057 129.123 19.2727Z" fill="white"/>
<path d="M137.998 28V10.5455H141.689V24.9574H149.172V28H137.998Z" fill="white"/>
<path d="M169.376 19.2727C169.376 21.1761 169.015 22.7955 168.293 24.1307C167.577 25.4659 166.6 26.4858 165.361 27.1903C164.128 27.8892 162.742 28.2386 161.202 28.2386C159.651 28.2386 158.259 27.8864 157.026 27.1818C155.793 26.4773 154.819 25.4574 154.103 24.1222C153.387 22.7869 153.029 21.1705 153.029 19.2727C153.029 17.3693 153.387 15.75 154.103 14.4148C154.819 13.0796 155.793 12.0625 157.026 11.3636C158.259 10.6591 159.651 10.3068 161.202 10.3068C162.742 10.3068 164.128 10.6591 165.361 11.3636C166.6 12.0625 167.577 13.0796 168.293 14.4148C169.015 15.75 169.376 17.3693 169.376 19.2727ZM165.634 19.2727C165.634 18.0398 165.449 17 165.08 16.1534C164.717 15.3068 164.202 14.6648 163.538 14.2273C162.873 13.7898 162.094 13.571 161.202 13.571C160.31 13.571 159.532 13.7898 158.867 14.2273C158.202 14.6648 157.685 15.3068 157.316 16.1534C156.952 17 156.771 18.0398 156.771 19.2727C156.771 20.5057 156.952 21.5455 157.316 22.3921C157.685 23.2386 158.202 23.8807 158.867 24.3182C159.532 24.7557 160.31 24.9744 161.202 24.9744C162.094 24.9744 162.873 24.7557 163.538 24.3182C164.202 23.8807 164.717 23.2386 165.08 22.3921C165.449 21.5455 165.634 20.5057 165.634 19.2727Z" fill="white"/>
<path d="M174.509 28V10.5455H181.396C182.714 10.5455 183.839 10.7813 184.771 11.2528C185.708 11.7188 186.421 12.3807 186.91 13.2386C187.404 14.0909 187.651 15.0938 187.651 16.2472C187.651 17.4063 187.401 18.4034 186.901 19.2386C186.401 20.0682 185.677 20.7046 184.728 21.1477C183.785 21.5909 182.643 21.8125 181.302 21.8125H176.691V18.8466H180.705C181.41 18.8466 181.995 18.75 182.461 18.5568C182.927 18.3636 183.273 18.0739 183.501 17.6875C183.734 17.3011 183.85 16.821 183.85 16.2472C183.85 15.6676 183.734 15.179 183.501 14.7813C183.273 14.3835 182.924 14.0824 182.452 13.8778C181.987 13.6676 181.398 13.5625 180.688 13.5625H178.2V28H174.509ZM183.935 20.0568L188.273 28H184.2L179.955 20.0568H183.935Z" fill="white"/>
</svg>
